<svg xmlns="http://www.w3.org/2000/svg" xmlns:xlink="http://www.w3.org/1999/xlink" fill="none" version="1.1" width="436.005859375" height="276" viewBox="0 0 436.005859375 276"><g><g><g><path d="M23.237859375,16.439999Q29.445860375,16.439999,34.021862375,18.615997Q38.597862375,20.791996,41.093860375,24.855999Q43.589862375,28.919998,43.589862375,34.424Q43.589862375,39.863998,41.189861375,43.928001Q38.789859375,47.991997,34.341861375,50.167999Q29.893859375,52.343998,23.877861375,52.343998L16.005859375,52.343998L16.005859375,68.279999L4.101859575,68.279999L4.101859575,16.439999L23.237859375,16.439999ZM21.445860375,41.591999Q26.053859375,41.591999,28.741861375,39.671997Q31.429861375,37.751999,31.429861375,34.424Q31.429861375,31.095997,28.741861375,29.143997Q26.053859375,27.191998,21.445860375,27.191998L16.005859375,27.191998L16.005859375,41.591999L21.445860375,41.591999ZM77.893867375,68.279999L68.997863375,50.68L62.213863375,50.68L62.213863375,68.279999L50.309864375,68.279999L50.309864375,16.439999L68.741867375,16.439999Q75.141861375,16.439999,79.749862375,18.519997Q84.357864375,20.599998,86.789863375,24.439999Q89.221862375,28.279999,89.221862375,33.528Q89.221862375,38.647999,86.981865375,42.456001Q84.741867375,46.264,80.581863375,48.375999L91.845871375,68.279999L77.893867375,68.279999ZM62.213863375,27.191998L62.213863375,39.863998L67.013862375,39.863998Q71.877868375,39.863998,74.469864375,38.231998Q77.061866375,36.599998,77.061866375,33.528Q77.061866375,30.455997,74.469864375,28.823997Q71.877868375,27.191998,67.013862375,27.191998L62.213863375,27.191998ZM118.469869375,69.176003Q111.173869375,69.176003,105.765869375,65.912003Q100.357869375,62.647999,97.445869375,56.599998Q94.533874375,50.552002,94.533874375,42.360001Q94.533874375,34.167999,97.445869375,28.119999Q100.357869375,22.071999,105.765869375,18.807999Q111.173869375,15.543999,118.469869375,15.543999Q125.765869375,15.543999,131.173869375,18.807999Q136.581879375,22.071999,139.493869375,28.119999Q142.405869375,34.167999,142.405869375,42.360001Q142.405869375,50.552002,139.493869375,56.599998Q136.581879375,62.647999,131.173869375,65.912003Q125.765869375,69.176003,118.469869375,69.176003ZM118.469869375,58.040001Q123.909869375,58.040001,127.077869375,53.815998Q130.245879375,49.591999,130.245879375,42.360001Q130.245879375,35.127998,127.077869375,30.903999Q123.909869375,26.679996,118.469869375,26.679996Q113.029879375,26.679996,109.861869375,30.903999Q106.693869375,35.127998,106.693869375,42.360001Q106.693869375,49.591999,109.861869375,53.815998Q113.029879375,58.040001,118.469869375,58.040001ZM160.709869375,68.279999L149.189869375,68.279999L149.189869375,16.439999L159.749879375,16.439999L176.005879375,40.759998L176.389879375,40.759998L192.645869375,16.439999L203.205869375,16.439999L203.205869375,68.279999L191.685879375,68.279999L191.685879375,38.519997L191.301879375,38.519997L180.677869375,53.751999L171.717869375,53.751999L161.093869375,38.776001L160.709869375,38.776001L160.709869375,68.279999ZM230.533879375,16.439999Q236.741879375,16.439999,241.317889375,18.615997Q245.893889375,20.791996,248.389879375,24.855999Q250.885879375,28.919998,250.885879375,34.424Q250.885879375,39.863998,248.485889375,43.928001Q246.085879375,47.991997,241.637879375,50.167999Q237.189879375,52.343998,231.173889375,52.343998L223.301879375,52.343998L223.301879375,68.279999L211.397869375,68.279999L211.397869375,16.439999L230.533879375,16.439999ZM228.741879375,41.591999Q233.349879375,41.591999,236.037889375,39.671997Q238.725879375,37.751999,238.725879375,34.424Q238.725879375,31.095997,236.037889375,29.143997Q233.349879375,27.191998,228.741879375,27.191998L223.301879375,27.191998L223.301879375,41.591999L228.741879375,41.591999ZM279.813899375,68.279999L267.909879375,68.279999L267.909879375,27.575996L254.021899375,27.575996L254.021899375,16.439999L293.701899375,16.439999L293.701899375,27.575996L279.813899375,27.575996L279.813899375,68.279999Z" fill="#292929" fill-opacity="1"/></g><g><g><path d="M45.829860375,148.352001L61.317863375,148.352001L59.589862375,156.096001L44.485862375,156.096001Q38.789859375,156.096001,35.013862375,154.592003Q31.237861375,153.087997,28.549860375,149.503998Q26.181860375,153.47199999999998,22.085861375,157.37599899999998L16.773861375,153.279999Q16.133859375,155.328003,14.373860375,156.127998Q12.613860375,156.928001,8.965859375,156.928001L4.677859775,156.928001L3.141859575,147.327999L6.277859675,147.327999Q7.557859875,147.327999,8.037859875,146.880001Q8.517859475,146.431999,8.517859475,145.408001L8.517859475,136.44799799999998Q6.405859475,137.279999,3.525859575,138.559998L2.565859575,128.767998Q4.485859375,128.063999,8.517859475,126.463997L8.517859475,116.927998L3.717859475,116.927998L3.717859475,107.711998L8.517859475,107.711998L8.517859475,99.007996L17.221861375,99.007996L17.221861375,107.711998L21.381860375,107.711998L21.381860375,116.927998L17.221861375,116.927998L17.221861375,122.944L20.421859375,121.535999L20.613861375,125.439999L20.933860375,131.327999L17.221861375,132.863998L17.221861375,149.632004L17.221861375,150.208Q20.805860375,146.688,22.309860375,143.52Q23.813860375,140.35199699999998,24.453861375,135.295998L32.837860375,135.935997Q32.261860375,139.391998,31.749860375,141.439999Q32.965862375,143.615997,34.245861375,144.99200100000002Q35.525859375,146.368,37.061863375,147.136002L37.061863375,134.271999L21.637861375,134.271999L21.637861375,126.591999L60.805862375,126.591999L60.805862375,134.271999L45.829860375,134.271999L45.829860375,137.472L59.013862375,137.472L59.013862375,144.767998L45.829860375,144.767998L45.829860375,148.352001ZM24.133859375,99.071999L57.797863375,99.071999L57.797863375,124.47999999999999L24.133859375,124.47999999999999L24.133859375,99.071999ZM49.221862375,108.735996L49.221862375,106.047997L32.709861375,106.047997L32.709861375,108.735996L49.221862375,108.735996ZM32.709861375,114.623997L32.709861375,117.439999L49.221862375,117.439999L49.221862375,114.623997L32.709861375,114.623997ZM72.517860375,99.455997L120.709859375,99.455997L120.709859375,109.311996L72.517860375,109.311996L72.517860375,99.455997ZM125.061859375,125.888L102.149859375,125.888L102.149859375,147.584Q102.149859375,151.04000100000002,101.221859375,153.024002Q100.293859375,155.008003,98.117859375,155.872002Q95.941864375,156.736,92.165863375,156.736L83.653862375,156.736L81.733856375,146.560001L88.325859375,146.560001Q89.925857375,146.560001,90.597862375,146.33599900000002Q91.269859375,146.112,91.493858375,145.472Q91.717865375,144.832001,91.717865375,143.360001L91.717865375,125.888L67.909858375,125.888L67.909858375,116.095997L125.061859375,116.095997L125.061859375,125.888ZM87.237861375,132.28799800000002Q84.805862375,137.216,81.317855375,142.528Q77.829856375,147.84,74.309860375,151.935997L66.373855375,145.919998Q75.013862375,136,78.917862375,127.935997L87.237861375,132.28799800000002ZM111.941859375,128Q116.485859375,133.439999,125.701859375,145.792L117.509859375,152.064003Q108.293859375,138.815998,104.261859375,133.439999L111.941859375,128ZM140.293849375,97.215996L141.573849375,98.943996Q147.333859375,106.688,147.973859375,107.584L140.293849375,112.831997Q137.541859375,108.543999,132.869859375,102.463997L140.293849375,97.215996ZM149.637859375,99.519997L186.757859375,99.519997L186.757859375,147.903999Q186.757859375,151.360001,185.893859375,153.279999Q185.029859375,155.199997,183.045869375,156.031998Q181.061859375,156.86399799999998,177.413859375,156.86399799999998L169.285859375,156.86399799999998L167.493869375,148.736L173.957859375,148.736Q176.133869375,148.736,176.709869375,147.967999Q177.285859375,147.200001,177.285859375,145.152L177.285859375,108.351997L149.637859375,108.351997L149.637859375,99.519997ZM148.421859375,120.575996L148.421859375,112.127998L175.109859375,112.127998L175.109859375,120.575996L148.421859375,120.575996ZM130.949859375,116.736L144.517849375,116.736L144.517849375,139.84L147.845859375,136.703999L149.125859375,147.391998L140.229859375,155.519997L134.341859375,149.311996Q135.109859375,148.223999,135.301869375,147.071999Q135.493869375,145.919998,135.493869375,143.231998L135.493869375,126.079998L130.949859375,126.079998L130.949859375,116.736ZM149.957859375,147.967999L149.957859375,124.47999999999999L173.317859375,124.47999999999999L173.317859375,147.967999L149.957859375,147.967999ZM164.997859375,132.608002L158.405849375,132.608002L158.405849375,139.967999L164.997859375,139.967999L164.997859375,132.608002Z" fill="#292929" fill-opacity="1"/></g><g><path d="M25.925861375,221.83999599999999Q16.773861375,221.83999599999999,12.613860375,218.32Q8.453859375,214.799999,8.453859375,207.05599999999998L8.453859375,203.919998Q8.453859375,201.487999,7.781859875,200.271999Q7.109859975,199.05599999999998,5.509859575,198.608002Q3.909859675,198.16,0.773859385,198.16L0.773859385,187.919998Q3.909859675,187.919998,5.509859575,187.472Q7.109859975,187.023998,7.781859875,185.807999Q8.453859375,184.591999,8.453859375,182.16L8.453859375,179.023998Q8.453859375,171.279999,12.613860375,167.759998Q16.773861375,164.239998,25.925861375,164.239998L25.925861375,173.83999599999999Q22.405861375,173.83999599999999,20.805860375,175.119999Q19.205860375,176.399998,19.205860375,179.151997L19.205860375,182.799999Q19.205860375,186,18.629860375,187.855999Q18.053859375,189.711998,17.029859375,190.736Q16.005859375,191.759998,14.021860375,192.848L14.021860375,193.231998Q15.941860375,194.38399900000002,16.997860375,195.407997Q18.053859375,196.431999,18.629860375,198.28799800000002Q19.205860375,200.143997,19.205860375,203.279999L19.205860375,206.928001Q19.205860375,209.68,20.805860375,210.959999Q22.405861375,212.239998,25.925861375,212.239998L25.925861375,221.83999599999999ZM79.429863375,212.94400000000002Q82.629860375,214.032001,87.557861375,215.888L84.549865375,223.37599899999998Q78.597862375,220.688004,69.445861375,217.360001L71.109863375,212.94400000000002L63.045860375,212.94400000000002L65.157859375,217.04000100000002Q62.405861375,218.512001,59.301864375,219.760002Q56.197860375,221.008003,51.909862375,222.54399899999999L49.477859375,223.440002L46.533859375,216.27200299999998Q51.717865375,214.863998,56.261863375,212.94400000000002L47.557861375,212.94400000000002L47.557861375,212.112Q43.653862375,213.200001,39.333862375,214.48Q35.013862375,215.760002,32.197860375,216.592003L30.789861375,217.04000100000002L29.253860375,207.05599999999998Q30.661861375,206.863998,34.757862375,205.711998L34.757862375,186.639999L30.149860375,186.639999L30.149860375,177.679996L34.757862375,177.679996L34.757862375,163.535999L43.653862375,163.535999L43.653862375,177.679996L48.005859375,177.679996L48.005859375,186.639999L43.653862375,186.639999L43.653862375,203.152Q47.301864375,202.063999,47.621864375,201.935997L48.069862375,206.223999L50.885864375,206.223999L50.885864375,175.311996L62.725860375,175.311996L62.725860375,172.943996L48.325863375,172.943996L48.325863375,165.83999599999999L62.725860375,165.83999599999999L62.725860375,162.959999L71.877861375,162.959999L71.877861375,165.83999599999999L87.045860375,165.83999599999999L87.045860375,172.943996L71.877861375,172.943996L71.877861375,175.311996L84.101860375,175.311996L84.101860375,206.223999L87.429863375,206.223999L87.429863375,212.94400000000002L79.429863375,212.94400000000002ZM75.781860375,183.695999L75.781860375,181.264L59.205864375,181.264L59.205864375,183.695999L75.781860375,183.695999ZM59.205864375,191.183998L75.781860375,191.183998L75.781860375,188.751999L59.205864375,188.751999L59.205864375,191.183998ZM75.781860375,198.671997L75.781860375,196.239998L59.205864375,196.239998L59.205864375,198.671997L75.781860375,198.671997ZM75.781860375,203.855999L59.205864375,203.855999L59.205864375,206.223999L75.781860375,206.223999L75.781860375,203.855999ZM104.773869375,177.935997L104.773869375,182.863998L95.109863375,182.863998L95.109863375,168.848L117.765859375,168.848Q117.253859375,166.735996,116.741869375,164.879997L127.685869375,162.895996L129.285859375,168.848L150.469859375,168.848L150.469859375,182.927998L140.741869375,182.927998L140.741869375,177.935997L104.773869375,177.935997ZM127.813869375,203.599998L127.813869375,212.048L150.341859375,212.048L150.341859375,221.264L94.981865375,221.264L94.981865375,212.048L117.637859375,212.048L117.637859375,203.599998L102.277859375,203.599998L102.277859375,196.879997L97.989860375,199.05599999999998L94.021865375,190.48Q99.269867375,188.304001,105.061869375,185.00799899999998Q110.853869375,181.711998,115.077869375,178.575996L120.069859375,186.639999Q113.861859375,190.671997,106.629869375,194.575996L140.677859375,194.575996Q131.141859375,189.327999,125.445859375,186.703999L129.669859375,178.511997L133.317869375,180.431999Q144.965869375,186.38399900000002,152.005859375,190.28799800000002L147.397859375,198.48L143.493869375,196.175999L143.493869375,203.599998L127.813869375,203.599998ZM155.461869375,212.239998Q158.981859375,212.239998,160.581859375,210.959999Q162.181869375,209.68,162.181869375,206.928001L162.181869375,203.279999Q162.181869375,200.143997,162.757859375,198.28799800000002Q163.333859375,196.431999,164.389859375,195.407997Q165.445859375,194.38399900000002,167.365859375,193.231998L167.365859375,192.848Q165.381869375,191.759998,164.357869375,190.736Q163.333859375,189.711998,162.757859375,187.855999Q162.181869375,186,162.181869375,182.799999L162.181869375,179.151997Q162.181869375,176.399998,160.581859375,175.119999Q158.981859375,173.83999599999999,155.461869375,173.83999599999999L155.461869375,164.239998Q164.613859375,164.239998,168.773869375,167.759998Q172.933869375,171.279999,172.933869375,179.023998L172.933869375,182.16Q172.933869375,184.591999,173.605869375,185.807999Q174.277859375,187.023998,175.877869375,187.472Q177.477859375,187.919998,180.613859375,187.919998L180.613859375,198.16Q177.477859375,198.16,175.877869375,198.608002Q174.277859375,199.05599999999998,173.605869375,200.271999Q172.933869375,201.487999,172.933869375,203.919998L172.933869375,207.05599999999998Q172.933869375,214.799999,168.773869375,218.32Q164.613859375,221.83999599999999,155.461869375,221.83999599999999L155.461869375,212.239998Z" fill="#F16B23" fill-opacity="1"/><path d="M187.525859375,165.135998L212.037869375,165.135998L212.037869375,183.311996L187.525859375,183.311996L187.525859375,165.135998ZM214.341869375,165.135998L238.917879375,165.135998L238.917879375,183.311996L214.341869375,183.311996L214.341869375,165.135998ZM195.589869375,176.143997L203.973859375,176.143997L203.973859375,172.239998L195.589869375,172.239998L195.589869375,176.143997ZM222.405869375,176.143997L230.981869375,176.143997L230.981869375,172.239998L222.405869375,172.239998L222.405869375,176.143997ZM240.133869375,206.608002L238.597869375,206.28799800000002L238.597869375,223.05599999999998L230.533879375,223.05599999999998L230.533879375,220.94400000000002L222.341869375,220.94400000000002L222.341869375,223.05599999999998L214.277859375,223.05599999999998L214.277859375,203.087997L227.525859375,203.087997Q219.461869375,200.143997,213.637859375,195.344002Q211.717869375,197.83999599999999,208.613859375,199.66400099999998Q205.509869375,201.487999,200.517869375,203.087997L212.037869375,203.087997L212.037869375,223.05599999999998L203.973859375,223.05599999999998L203.973859375,220.94400000000002L196.101869375,220.94400000000002L196.101869375,223.05599999999998L188.037869375,223.05599999999998L188.037869375,206.28799800000002L185.477859375,206.863998L183.941859375,198.54399899999999Q190.277859375,197.967999,194.533879375,197.040001Q198.789869375,196.112,201.541869375,194.703999L186.501859375,194.703999L186.501859375,186.767998L207.941859375,186.767998Q208.197879375,185.68,208.389859375,183.952L218.181869375,184.39999799999998Q217.861879375,185.871998,217.541869375,186.767998L224.261869375,186.767998L223.365879375,184.33599900000002L232.581859375,183.88799699999998Q232.645869375,184.015999,233.669859375,186.767998L240.005879375,186.767998L240.005879375,194.703999L226.309879375,194.703999Q231.621869375,196.879997,242.629869375,198.54399899999999L240.133869375,206.608002ZM196.101869375,213.584L203.973859375,213.584L203.973859375,210.192001L196.101869375,210.192001L196.101869375,213.584ZM222.341869375,210.192001L222.341869375,213.584L230.533879375,213.584L230.533879375,210.192001L222.341869375,210.192001Z" fill="#292929" fill-opacity="1"/></g><g><path d="M1.1799999,258.6L18.799999,258.6L18.799999,260.76L1.1799999,260.76L1.1799999,258.6ZM34.239998,251.0799999L34.239998,254.5600004L38.279999,254.5600004L38.279999,263.4L36.540001,263.4L36.540001,263.360001L34.239998,263.360001L34.239998,269.34L32.459999,269.34L32.459999,263.360001L30.219999,263.360001L30.219999,263.4L28.48,263.4L28.48,254.5600004L32.459999,254.5600004L32.459999,251.0799999L34.239998,251.0799999ZM25.42,258.5L25.42,259.62Q26.84,260.82,28.139999,262.1L27.200001,263.68Q26.4,262.84,25.42,261.92L25.42,269.360001L23.66,269.360001L23.66,262.200001Q22.66,264.380001,21.559999,265.98L20.82,264.059999Q21.58,262.98,22.33,261.5Q23.08,260.02,23.639999,258.5L21.18,258.5L21.18,256.6199999L23.66,256.6199999L23.66,254.32000060000001Q22.459999,254.54,21.42,254.6599998L21.26,252.9200001Q22.799999,252.6800003,24.57,252.3400002Q26.34,252,27.540001,251.6800003L27.82,253.4200001Q27.200001,253.6199999,25.42,254L25.42,256.6199999L27.84,256.6199999L27.84,258.5L25.42,258.5ZM30.219999,256.3400002L30.219999,261.54L32.459999,261.54L32.459999,256.3400002L30.219999,256.3400002ZM34.239998,256.3400002L34.239998,261.54L36.540001,261.54L36.540001,256.3400002L34.239998,256.3400002ZM58.400002,269.059999Q54.599998,268.84,52.290001,268.49Q49.98,268.139999,48.18,267.360001Q47.16,268,45.639999,268.51Q44.119999,269.02,41.939999,269.5L41.220001,267.76Q43.040001,267.360001,44.23,267.02Q45.419998,266.68,46.239998,266.32Q44.939999,265.5,43.66,264.24L44.900002,263.040001L42.939999,263.040001L42.939999,255.1199999L49.080002,255.1199999L49.080002,253.54L41.52,253.54L41.52,251.8400002L58.559998,251.8400002L58.559998,253.54L51,253.54L51,255.1199999L57.139999,255.1199999L57.139999,263.040001L50.900002,263.040001Q50.66,264.92,49.700001,266.08Q51.18,266.58,53.299999,266.83Q55.419998,267.08,58.779999,267.200001L58.400002,269.059999ZM49.080002,258.3L49.080002,256.6999998L44.82,256.6999998L44.82,258.3L49.080002,258.3ZM55.279999,258.3L55.279999,256.6999998L51,256.6999998L51,258.3L55.279999,258.3ZM49.080002,259.78L44.82,259.78L44.82,261.42L49.080002,261.42L49.080002,261.120001L49.080002,259.78ZM51,261.42L55.279999,261.42L55.279999,259.78L51,259.78L51,261.18L51,261.42ZM44.939999,263.040001Q46.419998,264.52,47.860001,265.32Q48.32,264.880001,48.580002,264.33Q48.84,263.78000099999997,48.959999,263.040001L44.939999,263.040001ZM68.68,256.4000006Q68.32,259.2,67.93,260.97Q67.540001,262.74,66.900002,264.1L69.5,266.28000099999997L68.220001,267.84Q67.300003,266.98,65.919998,265.76Q64.760002,267.379999,62.360001,269.360001L60.959999,267.940001Q62.16,266.98,63,266.17Q63.84,265.360001,64.440002,264.5Q62.82,263.16,61.759998,262.38Q62.5,259.58,63,256.4800005L61.200001,256.4800005L61.200001,254.5799999L63.259998,254.5799999Q63.48,253.0200005,63.639999,251.0200005L65.480003,251.1800003Q65.379997,252.4200001,65.099998,254.5799999L68.68,254.5799999L68.68,256.4000006ZM78.959999,259.320001L78.959999,261.26L74.959999,261.26L74.959999,266.68Q74.959999,268.040001,74.370003,268.559999Q73.779999,269.08,72.279999,269.08L70.260002,269.08L69.839996,267.120001L71.720001,267.120001Q72.519997,267.120001,72.769997,266.9Q73.019997,266.68,73.019997,265.98L73.019997,261.26L68.879997,261.26L68.879997,259.320001L73.019997,259.320001L73.019997,257.02L76.059998,254.1199999L69.68,254.1199999L69.68,252.2200003L78.5,252.2200003L78.5,254.1199999L74.959999,257.7L74.959999,259.320001L78.959999,259.320001ZM65.379997,262.84Q65.900002,261.68,66.260002,260.15Q66.620003,258.62,66.900002,256.4800005L64.800003,256.4800005Q64.360001,259.28,63.759998,261.559999L65.379997,262.84ZM98.279999,254Q98.220001,256.1999998,98.089996,260.22Q97.959999,264.24,97.879997,266.4Q97.839996,267.4,97.529999,267.959999Q97.220001,268.52,96.57,268.77Q95.919998,269.02,94.800003,269.02L92.239998,269.02L91.860001,267.08L94.199997,267.08Q94.959999,267.08,95.339996,266.959999Q95.720001,266.84,95.879997,266.5Q96.040001,266.16,96.059998,265.459999Q96.119995,263.78000099999997,96.220001,260.72Q96.32,257.66,96.360001,255.9200001L92.199997,255.9200001Q91.519997,257.46,90.800003,258.66L89.139999,257.62L89.139999,268.02L83.779999,268.02L83.779999,269.200001L81.919998,269.200001L81.919998,253.9800005L84.059998,253.9800005Q84.519997,252.46,84.82,250.8199997L86.779999,251.1599998Q86.599998,252.0799999,86.080002,253.9800005L89.139999,253.9800005L89.139999,257.54Q90.059998,256.1400003,90.830002,254.2300005Q91.599998,252.32000060000001,91.979996,250.6800003L93.879997,251.1200008Q93.599998,252.3000002,92.979996,254L98.279999,254ZM87.279999,260L87.279999,255.9000006L83.779999,255.9000006L83.779999,260L87.279999,260ZM93.300003,263.76Q92.699997,262.82,91.910004,261.690001Q91.120003,260.559999,90.479996,259.74L91.919998,258.64Q93.260002,260.3,94.940002,262.66L93.300003,263.76ZM83.779999,261.940001L83.779999,266.1L87.279999,266.1L87.279999,261.940001L83.779999,261.940001ZM118.96,267.299999L118.6,268.98L113.78,268.98Q111.92,268.98,110.75,268.389999Q109.58,267.799999,108.74,266.360001Q108.06,267.879999,106.6,269.459999L105.22,268.32Q106.18,267.34,106.7,266.53000099999997Q107.22,265.71999900000003,107.5,264.809999Q107.78,263.9,107.96,262.48L109.66,262.62Q109.56,263.380001,109.34,264.440001Q109.88,265.620001,110.49,266.24Q111.1,266.860001,111.98,267.1L111.98,261.92L106.6,261.92L106.6,260.559999Q106.3,260.66,105.62,260.940001Q105.42,261,105.02,261.16L105.02,267.18Q105.02,267.959999,104.82,268.379999Q104.62,268.799999,104.13,268.98Q103.64,269.16,102.74,269.16L101.54,269.16L101.2,267.26L102.2,267.26Q102.82,267.26,103.03,267.1Q103.24,266.940001,103.24,266.459999L103.24,261.84Q102.96,261.96,102.82,262L101.24,262.64L101.04,260.68L102.5,260.16L103.24,259.88L103.24,256.5200005L101.3,256.5200005L101.3,254.6800003L103.24,254.6800003L103.24,251.3000011L105.02,251.3000011L105.02,254.6800003L106.78,254.6800003L106.78,256.5200005L105.02,256.5200005L105.02,259.18Q105.66,258.940001,106.54,258.56L106.6,259.52L106.66,260.32L118.74,260.32L118.74,261.92L113.74,261.92L113.74,263.66L118.02,263.66L118.02,265.24L113.74,265.24L113.74,267.299999L113.8,267.299999L118.96,267.299999ZM107.96,251.8600006L117.4,251.8600006L117.4,258.98L107.96,258.98L107.96,251.8600006ZM115.62,254.7200003L115.62,253.32000060000001L109.72,253.32000060000001L109.72,254.7200003L115.62,254.7200003ZM109.72,256.0799999L109.72,257.5L115.62,257.5L115.62,256.0799999L109.72,256.0799999ZM123.02,252.1400003L137.22,252.1400003L137.22,254.1000004L123.02,254.1000004L123.02,252.1400003ZM138.88,259.400001L131.3,259.400001L131.3,266.68Q131.3,267.639999,131.03,268.18Q130.75999,268.71999900000003,130.14999,268.959999Q129.53999,269.200001,128.46001,269.200001L126,269.200001L125.62,267.200001L127.76,267.200001Q128.38,267.200001,128.67999,267.09Q128.98,266.98,129.09,266.709999Q129.2,266.440001,129.2,265.880001L129.2,259.400001L121.28,259.400001L121.28,257.46L138.88,257.46L138.88,259.400001ZM126.8,261.58Q126.06,263.119999,124.92,264.9Q123.78,266.68,122.66,268L121.02,266.76Q122.16,265.42,123.28,263.74Q124.4,262.059999,125.1,260.620001L126.8,261.58ZM134.75999,260.64Q135.60001,261.68,136.88,263.51Q138.16,265.34,138.98,266.66L137.25999,267.92Q136.45999,266.6,135.2,264.709999Q133.94,262.82,133.14,261.76L134.75999,260.64ZM143.39999,251.1800003Q145.06,253.4000006,145.88,254.5799999L144.32001,255.6599998Q143.92,255.0200005,143.19,254.0200005Q142.46001,253.0200005,141.88,252.2600002L143.39999,251.1800003ZM146.96001,252.0200005L157.92,252.0200005L157.92,266.639999Q157.92,267.6,157.69,268.139999Q157.45999,268.68,156.89999,268.91Q156.34,269.139999,155.3,269.139999L152.82001,269.139999L152.46001,267.4L154.7,267.4Q155.3,267.4,155.59,267.28000099999997Q155.88,267.16,155.98,266.889999Q156.08,266.620001,156.08,266.08L156.08,253.8400002L146.96001,253.8400002L146.96001,252.0200005ZM146.5,257.62L146.5,255.9000006L155.06,255.9000006L155.06,257.62L146.5,257.62ZM141.12,257.440001L144.74001,257.440001L144.74001,265.459999L146.28,264.059999L146.74001,266.040001L143.56,268.860001L142.42,267.559999Q142.7,267.24,142.8,266.889999Q142.89999,266.540001,142.89999,265.940001L142.89999,259.34L141.12,259.34L141.12,257.440001ZM147.28,266L147.28,259.54L154.02,259.54L154.02,266L147.28,266ZM152.3,261.22L149,261.22L149,264.32L152.3,264.32L152.3,261.22ZM164.39999,254.1000004Q163.66,255.1599998,162.56,256.3600006L161.14,255.3000002Q162.08,254.3400002,162.88,253.21Q163.67999,252.0799999,164.2,250.9400005L166.03999,251.2800007Q165.8,251.8199997,165.38,252.5799999L170.36,252.5799999L170.36,254.1000004L167.16,254.1000004Q167,253.9000006,168,255.2000008L166.39999,255.8000002Q165.96001,255.1199999,165.17999,254.1000004L164.39999,254.1000004ZM178.8,252.5799999L178.8,254.1000004L175.52,254.1000004Q176.02,254.7200003,175.98,254.6800003L176.36,255.1800003L174.75999,255.8000002Q174.17999,254.96,173.48,254.1000004L172.58,254.1000004Q172.14,254.8800001,171.7,255.5L170.02,254.7800007Q170.74001,253.8000002,171.2,252.9400005Q171.66,252.0799999,172.10001,250.960001L173.94,251.2200012Q173.75999,251.7000008,173.36,252.5799999L178.8,252.5799999ZM168.72,255.3600006L170.38,255L171.03999,256.3600006L178.3,256.3600006L178.3,259.62L176.36,259.62L176.36,257.8L163.66,257.8L163.66,259.08L176.25999,259.08L176.25999,263.16L165.48,263.16L165.48,264.440001L176.75999,264.440001L176.75999,269.440001L174.84,269.440001L174.84,268.68L165.48,268.68L165.48,269.48L163.53999,269.48L163.53999,259.62L161.72,259.62L161.72,256.3600006L169.17999,256.3600006L168.72,255.3600006ZM174.34,261.74L174.34,260.46L165.48,260.46L165.48,261.74L174.34,261.74ZM174.84,267.24L174.84,265.82L165.48,265.82L165.48,267.24L174.84,267.24ZM193.82001,265L193.82001,266.959999L198.86,266.959999L198.86,268.68L186.7,268.68L186.7,266.959999L192,266.959999L192,265L187.67999,265L187.67999,263.299999L192,263.299999L192,261.42L187.89999,261.42L187.89999,251.9799995L197.92,251.9799995L197.92,261.42L193.82001,261.42L193.82001,263.299999L198.28,263.299999L198.28,265L193.82001,265ZM187.24001,265.74L187.32001,266.66Q186.53999,266.799999,184.53,267.28000099999997Q182.52,267.76,181.34,268.059999L181.08,266.200001Q181.92,266.040001,183.42,265.68L183.42,260.46L181.38,260.46L181.38,258.66L183.42,258.66L183.42,254.3400002L181.25999,254.3400002L181.25999,252.54L187.17999,252.54L187.17999,254.3400002L185.16,254.3400002L185.16,258.66L187.03999,258.66L187.03999,260.46L185.16,260.46L185.16,265.26Q186.64,264.880001,187.17999,264.71999900000003L187.24001,265.74ZM192,255.8800001L192,253.6800003L189.72,253.6800003L189.72,255.8800001L192,255.8800001ZM193.82001,255.8800001L196.14,255.8800001L196.14,253.6800003L193.82001,253.6800003L193.82001,255.8800001ZM189.72,257.5L189.72,259.72L192,259.72L192,257.5L189.72,257.5ZM193.82001,257.5L193.82001,259.72L196.14,259.72L196.14,257.5L193.82001,257.5ZM211.08,254.5799999L211.08,266.16L218.67999,266.16L218.67999,268.059999L201.36,268.059999L201.36,266.16L208.89999,266.16L208.89999,254.5799999L202.46001,254.5799999L202.46001,252.5799999L217.60001,252.5799999L217.60001,254.5799999L211.08,254.5799999ZM236.34,251.8999996L236.34,263.42L238.74001,263.42L238.74001,265.1L221.24001,265.1L221.24001,263.42L223.66,263.42L223.66,251.8999996L236.34,251.8999996ZM234.46001,254.9000006L234.46001,253.5200005L225.52,253.5200005L225.52,254.9000006L234.46001,254.9000006ZM225.52,257.74L234.46001,257.74L234.46001,256.3600006L225.52,256.3600006L225.52,257.74ZM234.46001,260.559999L234.46001,259.2L225.52,259.2L225.52,260.559999L234.46001,260.559999ZM234.46001,262.02L225.52,262.02L225.52,263.42L234.46001,263.42L234.46001,262.02ZM221.28,267.879999Q222.94,267.4,224.61,266.68Q226.28,265.959999,227.64,265.200001L228.53999,266.71999900000003Q226.24001,267.959999,221.89999,269.52L221.28,267.879999ZM232.06,265.24Q232.7,265.459999,236.86,267.059999L238.56,267.71999900000003L237.78,269.4Q235.60001,268.42,231.39999,266.78000099999997L232.06,265.24Z" fill="#292929" fill-opacity="1"/></g></g><g transform="matrix(0,1,-1,0,445.005859375,-427.005859375)"><path d="M466.005859375,101L466.005859375,136.4L443.685859175,136.4L443.685859175,39.200005000000004L507.165855375,39.200005000000004L507.165855375,60.080002L466.005859375,60.080002L466.005859375,80.120003L504.285858375,80.120003L504.285858375,101L466.005859375,101ZM541.485859375,39.200005000000004L541.485859375,136.4L519.165855375,136.4L519.165855375,39.200005000000004L541.485859375,39.200005000000004ZM579.165859375,39.200005000000004L579.165859375,116.24L622.6058493749999,116.24L622.6058493749999,136.4L556.845859375,136.4L556.845859375,39.200005000000004L579.165859375,39.200005000000004ZM655.9658493750001,39.200005000000004L655.9658493750001,116.24L699.405849375,116.24L699.405849375,136.4L633.645839375,136.4L633.645839375,39.200005000000004L655.9658493750001,39.200005000000004Z" fill="#292929" fill-opacity="1"/></g></g></g></svg>