<svg xmlns="http://www.w3.org/2000/svg" xmlns:xlink="http://www.w3.org/1999/xlink" fill="none" version="1.1" width="36" height="36" viewBox="0 0 36 36"><defs><clipPath id="master_svg0_2203_10716"><rect x="0" y="0" width="36" height="36" rx="0"/></clipPath><linearGradient x1="0.8484848737716675" y1="0" x2="0.5" y2="1" id="master_svg1_2203_10715"><stop offset="4.109588637948036%" stop-color="#FAA977" stop-opacity="1"/><stop offset="32.952481508255005%" stop-color="#F97C39" stop-opacity="1"/><stop offset="100%" stop-color="#C5472E" stop-opacity="1"/></linearGradient><filter id="master_svg2_2203_10735" filterUnits="objectBoundingBox" color-interpolation-filters="sRGB" x="0" y="0" width="1" height="1"><feFlood flood-opacity="0" result="BackgroundImageFix"/><feBlend mode="normal" in="SourceGraphic" in2="BackgroundImageFix" result="shape"/><feColorMatrix in="SourceAlpha" type="matrix" result="hardAlpha" values="0 0 0 0 0 0 0 0 0 0 0 0 0 0 0 0 0 0 127 0"/><feOffset dy="1" dx="0"/><feGaussianBlur stdDeviation="0.5"/><feComposite in2="hardAlpha" operator="arithmetic" k2="-1" k3="1"/><feColorMatrix type="matrix" values="0 0 0 0 0 0 0 0 0 0 0 0 0 0 0 0 0 0 0.4699999988079071 0"/><feBlend mode="normal" in2="shape" result="effect1_innerShadow"/></filter><linearGradient x1="1" y1="0.5" x2="0" y2="0.5" id="master_svg3_2203_10730"><stop offset="0%" stop-color="#85B6FF" stop-opacity="1"/><stop offset="100%" stop-color="#2579F6" stop-opacity="1"/></linearGradient><linearGradient x1="0.5" y1="0" x2="0.5" y2="1" id="master_svg4_2203_10734"><stop offset="0%" stop-color="#FFFFFF" stop-opacity="0.6600000262260437"/><stop offset="100%" stop-color="#FFFFFF" stop-opacity="0"/></linearGradient></defs><g clip-path="url(#master_svg0_2203_10716)"><g><g><g><g><path d="M0,28.909092L0,7.0909095C0,3.1747079,3.1747079,0,7.0909095,0L28.909092,0C32.825294,0,36,3.1747079,36,7.0909095L36,28.909092C36,32.825294,32.825294,36,28.909092,36L7.0909095,36C3.1747079,36,0,32.825294,0,28.909092Z" fill="url(#master_svg1_2203_10715)" fill-opacity="1" style="mix-blend-mode:passthrough"/></g></g><g><g><path d="M0,7.0909095L0,28.909092Q0,30.261641,0.49786475,31.519222Q1.0384374,32.884682,2.0768793,33.923122Q3.1153207,34.961567,4.480783,35.502136Q5.7383618,36,7.0909095,36L28.909092,36Q30.261641,36,31.519222,35.502136Q32.884678,34.961567,33.923122,33.923122Q34.961567,32.884678,35.502136,31.519222Q36,30.261641,36,28.909092L36,7.0909095Q36,5.7383614,35.502136,4.480783Q34.961567,3.1153207,33.923122,2.0768793Q32.884682,1.0384374,31.519222,0.49786475Q30.261641,0,28.909092,0L7.0909095,0Q5.7383637,0,4.480783,0.49786475Q3.1153185,1.0384399,2.0768793,2.0768793Q1.0384396,3.1153188,0.49786475,4.480783Q0,5.7383637,0,7.0909095ZM2.2697265,33.730274Q0.27272728,31.733274,0.27272728,28.909092L0.27272728,7.0909095Q0.27272728,4.2667251,2.2697265,2.2697265Q4.2667255,0.27272728,7.0909095,0.27272728L28.909092,0.27272728Q31.733274,0.27272728,33.730274,2.2697265Q35.727276,4.2667274,35.727276,7.0909095L35.727276,28.909092Q35.727276,31.733274,33.730274,33.730274Q31.733274,35.727276,28.909092,35.727276L7.0909095,35.727276Q4.2667274,35.727276,2.2697265,33.730274Z" fill-rule="evenodd" fill="#FFFFFF" fill-opacity="0.07999999821186066" style="mix-blend-mode:passthrough"/></g></g><g><g filter="url(#master_svg2_2203_10735)"><g><g><path d="M24.364238220703125,11.577996721044922Q25.516237220703125,12.559814921044921,25.516237220703125,14.261633921044922Q25.516237220703125,15.937269321044921,24.324966220703125,16.93217732104492Q23.133692220703125,17.92708832104492,21.117693220703124,17.92708832104492L13.363467220703125,17.92708832104492L11.727184820703124,17.92704632104492C9.919675620703124,17.92700132104492,8.454376220703125,19.39226432104492,8.454376220703125,21.199773321044923L8.454376220703125,28.017875321044922C8.454376220703125,29.37348132104492,9.553313820703124,30.47241932104492,10.908921720703125,30.47241932104492C12.264529420703125,30.47241932104492,13.363467220703125,29.37348132104492,13.363467220703125,28.017875321044922L13.363467220703125,26.069631321044923C13.363467220703125,24.262155321044922,14.828717220703126,22.79690532104492,16.636195220703126,22.79690532104492L21.405693220703125,22.79690532104492Q24.076238220703125,22.79690532104492,26.039873220703125,21.76272432104492Q28.003511220703125,20.72854232104492,29.037693220703126,18.80417732104492Q30.071874220703126,16.879815321044923,30.071874220703126,14.261633921044922Q30.071874220703126,11.643451221044922,29.037693220703126,9.719087621044922Q28.003511220703125,7.794723721044922,26.039873220703125,6.760542021044921Q24.076238220703125,5.726360321044922,21.405693220703125,5.726360321044922L10.932963620703125,5.726360321044922C9.588200720703124,5.726360321044922,8.498055200703124,6.816506421044922,8.498055200703124,8.161269221044922C8.498055200703124,9.506032721044921,9.588200720703124,10.59617802104492,10.932963620703125,10.59617802104492L21.222421220703126,10.59617802104492Q23.212238220703124,10.59617802104492,24.364238220703125,11.577996721044922Z" fill-rule="evenodd" fill="#E5E5E5" fill-opacity="1" style="mix-blend-mode:passthrough"/></g></g></g><g><g><g><path d="M8.454376220703125,14.1825285C8.454376220703125,13.12816656,9.309105280703125,12.2734375,10.363467220703125,12.2734375L20.999831220703125,12.2734375C22.054193220703127,12.2734375,22.908922220703126,13.12816656,22.908922220703126,14.1825285C22.908922220703126,15.2368903,22.054193220703127,16.0916195,20.999831220703125,16.0916195L10.363467220703125,16.0916195C9.309105280703125,16.0916195,8.454376220703125,15.2368903,8.454376220703125,14.1825285Z" fill="url(#master_svg3_2203_10730)" fill-opacity="1" style="mix-blend-mode:passthrough"/></g></g><g><g><path d="M9.013535560703126,12.8325969Q8.454376220703125,13.3917572,8.454376220703125,14.1825285Q8.454376220703125,14.9732995,9.013535560703126,15.5324588Q9.572695820703125,16.0916195,10.363467020703125,16.0916195L20.999830220703124,16.0916195Q21.790600220703126,16.0916195,22.349757220703125,15.5324588Q22.908919220703126,14.9732988,22.908919220703126,14.1825285Q22.908919220703126,13.3917583,22.349757220703125,12.8325969Q21.790600220703126,12.2734375,20.999830220703124,12.2734375L10.363467020703125,12.2734375Q9.572695820703125,12.2734375,9.013535560703126,12.8325969ZM9.206383050703124,15.3396125Q8.727103470703124,14.8603327,8.727103470703124,14.1825285Q8.727103470703124,13.504724,9.206383050703124,13.02544445Q9.685662620703125,12.54616478,10.363467020703125,12.54616478L20.999830220703124,12.54616478Q21.677632220703124,12.54616478,22.156914220703126,13.02544445Q22.636192220703123,13.5047251,22.636192220703123,14.1825285Q22.636192220703123,14.860332,22.156914220703126,15.3396125Q21.677632220703124,15.8188922,20.999830220703124,15.8188922L10.363467020703125,15.8188922Q9.685662620703125,15.8188922,9.206383050703124,15.3396125Z" fill-rule="evenodd" fill="url(#master_svg4_2203_10734)" fill-opacity="1" style="mix-blend-mode:passthrough"/></g></g></g></g></g></g></g></svg>